<?xml version="1.0" standalone="no"?>
<!DOCTYPE svg PUBLIC "-//W3C//DTD SVG 20010904//EN"
 "http://www.w3.org/TR/2001/REC-SVG-20010904/DTD/svg10.dtd">
<svg version="1.0" xmlns="http://www.w3.org/2000/svg"
 width="1024.000000pt" height="1024.000000pt" viewBox="0 0 1024.000000 1024.000000"
 preserveAspectRatio="xMidYMid meet">
<metadata>
Created by potrace 1.15, written by Peter Selinger 2001-2017
</metadata>
<g transform="translate(0.000000,1024.000000) scale(0.100000,-0.100000)"
fill="#000000" stroke="none">
<path d="M4980 10154 c-252 -68 -503 -316 -738 -731 -212 -372 -404 -940 -542
-1603 -18 -85 -34 -156 -35 -158 -1 -1 -83 25 -181 58 -854 290 -1567 394
-2075 305 -401 -71 -631 -247 -695 -532 -77 -347 158 -905 617 -1466 213 -259
537 -589 831 -843 l47 -41 -107 -94 c-590 -518 -1000 -1003 -1213 -1434 -197
-400 -240 -717 -128 -952 23 -49 54 -90 113 -149 69 -69 97 -89 186 -132 489
-238 1332 -173 2399 184 106 36 197 62 201 57 4 -4 17 -57 29 -118 38 -184
128 -544 180 -718 258 -855 639 -1455 1024 -1616 257 -107 505 -38 747 208
390 394 709 1133 900 2081 17 85 33 160 35 167 3 8 57 -6 167 -43 495 -167
968 -277 1370 -320 190 -20 583 -15 723 10 590 102 820 425 679 955 -138 522
-612 1153 -1360 1812 l-121 106 66 58 c275 240 596 563 797 805 341 409 571
821 639 1145 22 103 23 270 1 358 -57 238 -264 412 -580 487 -533 127 -1259
36 -2191 -275 -104 -34 -191 -62 -192 -61 -1 1 -19 81 -38 177 -160 780 -369
1353 -644 1766 -210 314 -413 493 -626 548 -74 19 -212 18 -285 -1z m258 -339
c72 -22 190 -104 262 -183 176 -193 369 -561 499 -948 97 -292 194 -694 266
-1106 4 -26 0 -28 -118 -74 -199 -77 -587 -244 -812 -351 l-211 -99 -199 94
c-241 113 -576 258 -780 337 -82 32 -154 61 -158 65 -16 14 75 481 153 785
203 789 527 1353 845 1472 72 27 178 30 253 8z m-3188 -2065 c337 -31 756
-128 1200 -278 169 -58 352 -122 358 -127 2 -2 -11 -97 -27 -211 -41 -284 -67
-504 -91 -788 -11 -132 -21 -241 -23 -242 -1 -1 -78 -55 -172 -119 -203 -141
-497 -360 -689 -514 -120 -96 -141 -109 -155 -98 -536 443 -908 832 -1160
1212 -207 313 -300 571 -272 753 35 227 225 370 546 411 100 12 350 13 485 1z
m6615 -1 c343 -41 527 -171 566 -402 21 -128 -18 -293 -118 -495 -67 -136
-238 -397 -356 -542 -198 -246 -492 -539 -802 -798 -82 -69 -157 -132 -167
-139 -14 -13 -29 -4 -135 80 -176 140 -496 376 -701 517 -157 108 -182 129
-186 155 -2 17 -14 145 -26 285 -20 247 -64 620 -95 805 -22 137 -26 127 63
159 597 216 1071 336 1470 375 129 12 384 12 487 0z m-4275 -727 c313 -138
350 -155 350 -161 0 -3 -75 -46 -167 -96 -91 -49 -296 -167 -455 -262 -158
-94 -288 -166 -288 -159 0 46 85 805 95 852 5 21 9 20 132 -31 71 -29 220 -93
333 -143z m1923 175 c16 -61 97 -783 97 -859 0 -4 -93 49 -207 119 -203 124
-378 224 -595 340 -59 32 -108 61 -108 64 0 7 778 357 796 358 7 1 14 -9 17
-22z m-1007 -628 c387 -207 1036 -583 1108 -643 l25 -21 12 -315 c11 -300 8
-787 -8 -1079 l-6 -123 -114 -74 c-310 -201 -1157 -684 -1200 -684 -42 0 -864
467 -1203 683 l-115 73 -3 762 -2 761 42 29 c150 102 1230 724 1269 731 3 1
91 -44 195 -100z m-1860 -1937 c-12 -11 -712 495 -710 513 1 14 279 227 514
395 l195 139 3 -521 c1 -287 0 -523 -2 -526z m3492 946 c199 -137 502 -362
570 -423 11 -10 -16 -34 -135 -122 -262 -193 -565 -403 -582 -403 -8 0 -9 10
-4 28 10 36 10 936 0 985 -4 20 -5 37 -2 37 3 0 72 -46 153 -102z m-4393 -704
c212 -170 580 -441 832 -613 l92 -62 5 -52 c3 -29 10 -115 16 -192 16 -205 57
-561 91 -794 16 -112 28 -205 25 -208 -19 -19 -464 -166 -718 -237 -667 -186
-1230 -223 -1560 -103 -331 120 -399 397 -200 817 51 106 179 321 257 430 208
289 531 618 955 973 63 53 120 97 125 97 6 0 42 -25 80 -56z m5376 -56 c585
-487 975 -938 1190 -1373 139 -283 161 -467 76 -628 -70 -134 -235 -220 -492
-258 -104 -16 -431 -16 -565 0 -394 46 -807 150 -1356 343 l-140 49 23 162
c34 243 70 578 88 813 9 115 18 223 21 241 4 28 24 45 182 154 218 150 449
320 663 484 89 69 165 125 169 125 4 0 68 -50 141 -112z m-3960 -929 c108 -67
576 -337 687 -395 50 -27 92 -51 92 -54 -1 -7 -332 -159 -584 -268 -141 -60
-221 -90 -226 -83 -9 15 -99 793 -100 865 0 18 1 18 28 0 15 -10 61 -39 103
-65z m2429 -148 c-29 -315 -74 -661 -86 -661 -9 0 -365 155 -544 237 -102 47
-202 92 -222 100 -21 9 -38 19 -38 24 0 4 64 41 143 82 177 92 438 243 622
358 77 48 141 86 143 85 1 -2 -7 -103 -18 -225z m-1180 -536 c212 -106 749
-341 997 -436 l63 -24 -6 -35 c-148 -848 -352 -1461 -624 -1875 -294 -445
-637 -493 -939 -131 -288 344 -509 922 -669 1746 -22 113 -43 225 -47 250 l-7
46 99 38 c243 95 739 316 948 424 44 22 83 41 88 42 4 0 48 -20 97 -45z"/>
<path d="M5011 5645 c-241 -53 -391 -245 -391 -501 0 -193 112 -371 284 -453
79 -38 134 -50 221 -51 290 0 524 253 502 545 -14 190 -125 357 -282 425 -110
48 -221 59 -334 35z"/>
</g>
</svg>
